<svg viewBox="0 0 200 200" xmlns="http://www.w3.org/2000/svg">
  <defs>
    <filter id="iconShadow">
      <feDropShadow dx="2" dy="2" stdDeviation="2" flood-opacity="0.3"/>
    </filter>
    <radialGradient id="iconGlow" cx="50%" cy="50%" r="50%">
      <stop offset="0%" style="stop-color:#FFD700;stop-opacity:0.4" />
      <stop offset="100%" style="stop-color:#FF6B00;stop-opacity:0" />
    </radialGradient>
  </defs>
  
  <!-- Glow background -->
  <circle cx="100" cy="100" r="95" fill="url(#iconGlow)"/>
  
  <!-- Main character head (simplified) -->
  <g filter="url(#iconShadow)">
    <!-- Chef hat -->
    <ellipse cx="100" cy="55" rx="60" ry="40" fill="#FFFFFF" stroke="#2D2D2D" stroke-width="5"/>
    <rect x="40" y="55" width="120" height="18" fill="#FFFFFF" stroke="#2D2D2D" stroke-width="5"/>
    <rect x="40" y="65" width="120" height="10" fill="#FF6B00"/>
    
    <!-- Face -->
    <circle cx="100" cy="105" r="55" fill="#FFD4A3" stroke="#2D2D2D" stroke-width="5"/>
    
    <!-- Determined eyebrows -->
    <path d="M 70 95 L 85 93" stroke="#2D2D2D" stroke-width="5" stroke-linecap="round"/>
    <path d="M 130 95 L 115 93" stroke="#2D2D2D" stroke-width="5" stroke-linecap="round"/>
    
    <!-- Eyes (intense) -->
    <ellipse cx="78" cy="103" rx="9" ry="16" fill="#2D2D2D"/>
    <ellipse cx="122" cy="103" rx="9" ry="16" fill="#2D2D2D"/>
    <ellipse cx="80" cy="99" rx="4" ry="6" fill="#FFFFFF"/>
    <ellipse cx="124" cy="99" rx="4" ry="6" fill="#FFFFFF"/>
    
    <!-- Determined smile -->
    <path d="M 80 125 Q 100 135 120 125" stroke="#2D2D2D" stroke-width="5" 
          fill="none" stroke-linecap="round"/>
    
    <!-- Action blush marks -->
    <line x1="55" y1="110" x2="65" y2="110" stroke="#FF6B00" stroke-width="4" stroke-linecap="round"/>
    <line x1="57" y1="116" x2="63" y2="116" stroke="#FF6B00" stroke-width="4" stroke-linecap="round"/>
    <line x1="135" y1="110" x2="145" y2="110" stroke="#FF6B00" stroke-width="4" stroke-linecap="round"/>
    <line x1="137" y1="116" x2="143" y2="116" stroke="#FF6B00" stroke-width="4" stroke-linecap="round"/>
    
    <!-- Ramen bowl at bottom -->
    <ellipse cx="100" cy="165" rx="45" ry="12" fill="#FF4444" stroke="#2D2D2D" stroke-width="4"/>
    <path d="M 55 165 L 55 173 Q 55 180 100 180 Q 145 180 145 173 L 145 165" 
          fill="#FF4444" stroke="#2D2D2D" stroke-width="4"/>
    
    <!-- Noodles -->
    <g stroke="#FFD700" stroke-width="4" fill="none" stroke-linecap="round">
      <path d="M 75 168 Q 85 163 95 168 Q 105 173 115 168"/>
      <path d="M 70 172 Q 80 167 90 172 Q 100 177 110 172"/>
    </g>
    
    <!-- Chopsticks -->
    <line x1="105" y1="160" x2="120" y2="145" stroke="#8B4513" stroke-width="4" stroke-linecap="round"/>
    <line x1="110" y1="160" x2="125" y2="145" stroke="#8B4513" stroke-width="4" stroke-linecap="round"/>
  </g>
  
  <!-- Action sparkles -->
  <g fill="#FFD700" opacity="0.9">
    <polygon points="25,50 28,60 38,60 30,67 33,77 25,70 17,77 20,67 12,60 22,60"/>
    <polygon points="175,50 178,60 188,60 180,67 183,77 175,70 167,77 170,67 162,60 172,60"/>
    <polygon points="170,140 172,147 179,147 173,152 175,159 170,154 165,159 167,152 161,147 168,147"/>
    <polygon points="30,140 32,147 39,147 33,152 35,159 30,154 25,159 27,152 21,147 28,147"/>
  </g>
  
  <!-- Speed lines -->
  <g stroke="#FF6B00" stroke-width="5" opacity="0.35" stroke-linecap="round">
    <line x1="15" y1="100" x2="35" y2="100"/>
    <line x1="165" y1="100" x2="185" y2="100"/>
    <line x1="20" y1="85" x2="35" y2="85"/>
    <line x1="165" y1="85" x2="180" y2="85"/>
  </g>
  
  <!-- Tiny kawaii heart -->
  <path d="M 100 185 Q 100 188 103 190 Q 106 188 106 185 Q 106 182 103 182 Q 100 182 100 185" 
        fill="#FF69B4" opacity="0.7"/>
</svg>